<svg width="26" height="26" viewBox="0 0 26 26" fill="none" xmlns="http://www.w3.org/2000/svg">
<path d="M18.4485 0.5C22.6876 0.5 25.5 3.52081 25.5 7.86646V18.1335C25.5 22.4792 22.6876 25.5 18.4485 25.5H7.5515C3.3124 25.5 0.5 22.4792 0.5 18.1335V7.86646C0.5 3.52488 3.31983 0.5 7.5515 0.5H18.4485ZM18.4485 2.24419H7.5515C4.31154 2.24419 2.24419 4.46187 2.24419 7.86646V18.1335C2.24419 21.5427 4.30465 23.7558 7.5515 23.7558H18.4485C21.6954 23.7558 23.7558 21.5427 23.7558 18.1335V7.86646C23.7558 4.45734 21.6954 2.24419 18.4485 2.24419ZM13 7.85733C13.4415 7.85733 13.8064 8.18542 13.8641 8.61109L13.8721 8.72943L13.8713 12.1163L17.2636 12.1168C17.7452 12.1168 18.1357 12.5073 18.1357 12.9889C18.1357 13.4304 17.8076 13.7953 17.3819 13.8531L17.2636 13.861L13.8713 13.86L13.8721 17.2484C13.8721 17.7301 13.4816 18.1205 13 18.1205C12.5585 18.1205 12.1936 17.7925 12.1359 17.3668L12.1279 17.2484L12.1275 13.86L8.73643 13.861C8.25479 13.861 7.86434 13.4706 7.86434 12.9889C7.86434 12.5474 8.19243 12.1826 8.6181 12.1248L8.73643 12.1168L12.1275 12.1163L12.1279 8.72943C12.1279 8.24778 12.5184 7.85733 13 7.85733Z" fill="#200E32"/>
</svg>
