<svg width="18" height="16" viewBox="0 0 18 16" fill="none" xmlns="http://www.w3.org/2000/svg">
<path d="M10.9611 0.5C11.7833 0.505736 12.4311 0.932944 12.8067 1.67285C12.8607 1.7784 12.9249 1.9082 13.0022 2.06768L13.5384 3.19481C13.5678 3.2569 13.6298 3.2962 13.7147 3.29642L13.8909 3.30122C15.8166 3.40187 17.3334 4.99354 17.3334 6.92737V11.8688C17.3334 13.8738 15.7058 15.5 13.6984 15.5H4.30258C2.29449 15.5 0.666748 13.874 0.666748 11.8688V6.92737C0.666748 4.92166 2.29423 3.2962 4.26272 3.29747L4.32509 3.29477C4.38452 3.28714 4.43681 3.24934 4.46239 3.19535L4.87174 2.33142L5.19303 1.67368C5.57052 0.932446 6.21721 0.505733 7.03905 0.5H10.9611ZM10.9567 1.74865H7.04778C6.70837 1.75102 6.47904 1.90234 6.30724 2.23967C6.25707 2.33827 6.19569 2.46278 6.12077 2.61763L5.59252 3.72892C5.3841 4.16888 4.96554 4.47152 4.44459 4.53709L4.30258 4.54489C2.98453 4.54489 1.91675 5.61134 1.91675 6.92737V11.8688C1.91675 13.1843 2.98484 14.2513 4.30258 14.2513H13.6984C15.0154 14.2513 16.0834 13.1842 16.0834 11.8688V6.92737C16.0834 5.65865 15.0881 4.61418 13.842 4.54884L13.572 4.53931C13.0706 4.49492 12.6263 4.18867 12.4082 3.72837L11.8261 2.50702L11.6927 2.23918C11.5218 1.90252 11.292 1.75102 10.9567 1.74865ZM9.00379 5.82903L9.17207 5.8335C10.8999 5.92341 12.2769 7.35939 12.2739 9.10915C12.2708 10.9091 10.8026 12.3767 9.00177 12.3788C7.19779 12.3798 5.72538 10.9061 5.72644 9.1073C5.7119 7.31461 7.19436 5.82698 9.00379 5.82903ZM9.00237 7.07771L8.86953 7.08195C7.81505 7.15057 6.96785 8.04343 6.97642 9.1026C6.97578 10.2172 7.88854 11.1307 9.0007 11.1301C10.1119 11.1288 11.022 10.2191 11.0239 9.10701C11.0258 7.99036 10.1172 7.07899 9.00237 7.07771ZM13.7539 5.73156C13.8224 5.79897 13.88 5.88032 13.912 5.94891L13.931 5.99756C13.977 6.10096 14.0002 6.21339 14.0002 6.32683C14.0002 6.54471 13.9151 6.74621 13.757 6.91395C13.6204 7.05133 13.441 7.13582 13.2496 7.15479L13.1669 7.15888L13.0857 7.15479C13.0052 7.14654 12.9256 7.12555 12.8366 7.08974C12.7375 7.04577 12.6517 6.98985 12.5688 6.90569C12.4198 6.7474 12.3336 6.54039 12.3336 6.32683C12.3336 6.21339 12.3568 6.10096 12.4021 5.99911C12.4476 5.89592 12.5014 5.80888 12.5987 5.7142C12.6728 5.64979 12.7486 5.59797 12.8523 5.55235C13.1597 5.43067 13.5253 5.50337 13.7539 5.73156Z" fill="#200E32"/>
</svg>
