<svg width="26" height="26" viewBox="0 0 26 26" fill="none" xmlns="http://www.w3.org/2000/svg">
<path d="M18.4485 0.67334C22.6876 0.67334 25.5 3.69415 25.5 8.0398V18.3069C25.5 22.6525 22.6876 25.6733 18.4485 25.6733H7.5515C3.3124 25.6733 0.5 22.6525 0.5 18.3069V8.0398C0.5 3.69822 3.31983 0.67334 7.5515 0.67334H18.4485ZM18.4485 2.41753H7.5515C4.31154 2.41753 2.24419 4.63521 2.24419 8.0398V18.3069C2.24419 21.716 4.30465 23.9292 7.5515 23.9292H18.4485C21.6954 23.9292 23.7558 21.716 23.7558 18.3069V8.0398C23.7558 4.63068 21.6954 2.41753 18.4485 2.41753Z" fill="#8E8E93"/>
<rect x="7.375" y="11.9233" width="11.25" height="1.875" rx="0.9375" fill="#8E8E93"/>
</svg>
