<svg width="30" height="31" viewBox="0 0 30 31" fill="none" xmlns="http://www.w3.org/2000/svg">
<path fill-rule="evenodd" clip-rule="evenodd" d="M15 30.216C23.2843 30.216 30 23.5639 30 15.358C30 7.15216 23.2843 0.5 15 0.5C6.71573 0.5 0 7.15216 0 15.358C0 19.0665 1.37161 22.4576 3.63973 25.0608L2.49659 30.5L7.57421 28.2705C9.76366 29.5086 12.2984 30.216 15 30.216Z" fill="#FAFCFD"/>
<path d="M7.23512 17.7562C8.22742 17.7562 9.16058 17.7497 10.0872 17.7562C10.6063 17.7628 10.8889 17.9797 10.9415 18.3937C11.0006 18.9128 10.6983 19.2611 10.1332 19.2677C9.06858 19.2808 8.01056 19.2743 6.94597 19.2743C6.6371 19.2743 6.33481 19.2874 6.02595 19.2677C5.6448 19.248 5.27022 19.1691 5.08622 18.7748C4.90221 18.3805 5.03365 18.0257 5.28336 17.7037C6.29538 16.4156 7.31397 15.121 8.33256 13.833C8.39171 13.7542 8.45085 13.6753 8.51 13.603C8.44428 13.4913 8.35228 13.5439 8.27342 13.5373C7.56369 13.5307 6.84739 13.5373 6.13767 13.5307C5.97338 13.5307 5.80909 13.511 5.65137 13.4782C5.27679 13.3927 5.04679 13.0181 5.13222 12.6501C5.19136 12.4004 5.38851 12.1967 5.63823 12.1376C5.79595 12.0981 5.96023 12.0784 6.12452 12.0784C7.29426 12.0718 8.47057 12.0718 9.6403 12.0784C9.85059 12.0718 10.0543 12.0981 10.258 12.1507C10.7049 12.3018 10.8955 12.7159 10.718 13.1496C10.5603 13.5242 10.3106 13.8462 10.0609 14.1682C9.20001 15.2656 8.33914 16.3565 7.47826 17.4408C7.40598 17.5262 7.34026 17.6117 7.23512 17.7562Z" fill="#008BE6"/>
<path d="M14.8581 14.2996C15.0158 14.0959 15.1801 13.9053 15.4496 13.8527C15.9687 13.7476 16.455 14.0827 16.4616 14.6084C16.4813 15.9227 16.4747 17.2371 16.4616 18.5514C16.4616 18.8931 16.2382 19.1954 15.9162 19.294C15.5876 19.4188 15.213 19.3202 14.9961 19.0377C14.8844 18.8997 14.8384 18.8734 14.6807 18.9982C14.0827 19.4845 13.4058 19.57 12.6764 19.3334C11.5066 18.9522 11.0269 18.0388 10.8955 16.9282C10.7575 15.7256 11.1583 14.7004 12.2361 14.0696C13.1298 13.5373 14.0367 13.5833 14.8581 14.2996ZM12.5318 16.6982C12.5449 16.9873 12.6369 17.2633 12.8078 17.4933C13.1627 17.9665 13.8395 18.0651 14.3193 17.7102C14.3981 17.6511 14.4704 17.5788 14.5361 17.4933C14.9041 16.9939 14.9041 16.1725 14.5361 15.673C14.3521 15.4167 14.063 15.2656 13.7541 15.259C13.0312 15.213 12.5252 15.7716 12.5318 16.6982ZM19.4122 16.7376C19.3596 15.0487 20.4702 13.787 22.0474 13.741C23.7232 13.6884 24.9455 14.8122 24.998 16.455C25.0506 18.1176 24.032 19.294 22.4614 19.4517C20.7462 19.6225 19.3859 18.3805 19.4122 16.7376ZM21.0617 16.5799C21.0485 16.9085 21.1471 17.2305 21.3442 17.4999C21.7057 17.9731 22.3826 18.0651 22.8557 17.6971C22.928 17.6445 22.9871 17.5788 23.0463 17.5131C23.4274 17.0136 23.4274 16.1725 23.0529 15.673C22.8688 15.4233 22.5797 15.2656 22.2708 15.259C21.5611 15.2196 21.0617 15.7585 21.0617 16.5799ZM18.8339 15.4299C18.8339 16.4485 18.8405 17.4671 18.8339 18.4857C18.8405 18.9522 18.4725 19.34 18.0059 19.3531C17.927 19.3531 17.8416 19.3465 17.7628 19.3268C17.4342 19.2414 17.1845 18.8931 17.1845 18.4791V13.2547C17.1845 12.9458 17.1779 12.6435 17.1845 12.3347C17.191 11.8287 17.513 11.5001 17.9993 11.5001C18.4988 11.4935 18.8339 11.8221 18.8339 12.3478C18.8405 13.373 18.8339 14.4047 18.8339 15.4299Z" fill="#008BE6"/>
</svg>
